<svg width="70" height="70" viewBox="0 0 70 70" fill="none" xmlns="http://www.w3.org/2000/svg">
<g id="Group">
<g id="Group_2">
<path id="Vector" d="M35 0C15.6625 0 0 15.6625 0 35C0 54.3375 15.6625 70 35 70C54.3375 70 70 54.3375 70 35C70 15.6625 54.3375 0 35 0ZM31.15 43.75C31.15 45.9375 29.4 47.6 27.3 47.6C25.1125 47.6 23.45 45.85 23.45 43.75V26.25C23.3625 24.15 25.1125 22.4 27.2125 22.4C29.4 22.4 31.15 24.15 31.15 26.25V43.75ZM46.6375 43.75C46.6375 45.9375 44.8875 47.6 42.7875 47.6C40.6 47.6 38.9375 45.85 38.9375 43.75V26.25C38.85 24.15 40.6 22.4 42.7 22.4C44.8875 22.4 46.6375 24.15 46.6375 26.25V43.75Z" fill="white" fill-opacity="0.5"/>
</g>
</g>
</svg>