<svg width="47" height="47" viewBox="0 0 47 47" fill="none" xmlns="http://www.w3.org/2000/svg">
<path d="M22.1527 10.7199C21.2807 9.81012 20.2342 9.08543 19.0758 8.58917C17.9174 8.09291 16.6709 7.83525 15.4107 7.8316C14.1504 7.82794 12.9024 8.07836 11.7412 8.56789C10.5799 9.05743 9.52925 9.77602 8.65196 10.6808C4.93113 14.4995 4.95071 20.7035 8.69113 24.534L22.517 38.7241C23.0888 39.3116 24.021 39.3116 24.5928 38.7241L38.352 24.6163C40.1359 22.7507 41.1282 20.2669 41.1209 17.6857C41.1136 15.1045 40.1073 12.6263 38.3129 10.7708C37.4401 9.85997 36.3926 9.13448 35.2331 8.63779C34.0735 8.1411 32.8256 7.8834 31.5641 7.88011C30.3026 7.87682 29.0535 8.128 27.8913 8.61864C26.7291 9.10928 25.6779 9.82928 24.8004 10.7356L23.4844 12.0868L22.1527 10.7199Z" fill="white"/>
</svg>
